<svg width="24" height="24" viewBox="0 0 24 24" fill="none"
     xmlns="http://www.w3.org/2000/svg" stroke="currentColor" stroke-width="2"
     stroke-linecap="round" stroke-linejoin="round">
  <circle cx="12" cy="12" r="3"/>
  <path d="M19.4 15a1 1 0 0 0 .2-1.1l-1-1.7a7.7 7.7 0 0 0 .1-1.4l1-1.7a1 1 0 0 0-.2-1.1l-1.1-1.1a1 1 0 0 0-1.1-.2l-1.7 1a7.7 7.7 0 0 0-1.4-.1l-1.7-1a1 1 0 0 0-1.1.2L9 5.1a1 1 0 0 0-.2 1.1l1 1.7c-.05.46-.05.94 0 1.4l-1 1.7a1 1 0 0 0 .2 1.1l1.1 1.1c.3.3.7.4 1.1.2l1.7-1c.46.05.94.05 1.4 0l1.7 1c.4.2.8.1 1.1-.2l1.1-1.1z"/>
</svg>